<?xml version="1.0" ?><svg viewBox="0 0 512 512" xmlns="http://www.w3.org/2000/svg"><title/><g data-name="1" id="_1"><path d="M373.89,450H145a50.17,50.17,0,0,1-50.11-50.11V98.11A50.17,50.17,0,0,1,145,48h150.1a15,15,0,0,1,10.61,4.39L419.61,166.27A15,15,0,0,1,424,176.88v223A50.17,50.17,0,0,1,373.89,450ZM145,78a20.13,20.13,0,0,0-20.11,20.11V399.89A20.13,20.13,0,0,0,145,420H373.89A20.13,20.13,0,0,0,394,399.89V183.09L288.91,78Z"/><path d="M409,191.88H330.23a50.17,50.17,0,0,1-50.11-50.11V63a15,15,0,0,1,30,0v78.77a20.13,20.13,0,0,0,20.11,20.11H409a15,15,0,0,1,0,30Z"/><path d="M250,360a15,15,0,0,1-12.59-6.85l-44-68a15,15,0,1,1,25.18-16.3L250,317.39l61-94.23a15,15,0,1,1,25.19,16.3L262.59,353.15A15,15,0,0,1,250,360Z"/></g></svg>